<svg width="1569" height="196" viewBox="0 0 1569 196" fill="none" xmlns="http://www.w3.org/2000/svg">
<g opacity="0.2">
<path d="M69.6087 98C65.3253 66.883 61.8735 41.795 61.8735 41.795C61.8735 41.795 65.3253 66.8987 69.6087 98ZM69.6087 98L77.336 154.205" stroke="#CAECF1" stroke-width="0.33" stroke-miterlimit="10"/>
<path d="M115.322 152.833L99.9846 98L84.6476 43.167" stroke="#CAECF1" stroke-width="0.33" stroke-miterlimit="10"/>
<path d="M107.673 45.472L130.368 98L153.056 150.567" stroke="#CAECF1" stroke-width="0.33" stroke-miterlimit="10"/>
<path d="M190.422 147.447C190.422 147.447 177.171 125.362 160.744 98L131.066 48.5531" stroke="#CAECF1" stroke-width="0.33" stroke-miterlimit="10"/>
<path d="M154.939 52.4731L191.128 98L227.309 143.527" stroke="#CAECF1" stroke-width="0.33" stroke-miterlimit="10"/>
<path d="M263.592 138.862L221.504 98L179.407 57.1379" stroke="#CAECF1" stroke-width="0.33" stroke-miterlimit="10"/>
<path d="M204.551 62.4691L251.887 98L299.216 133.531" stroke="#CAECF1" stroke-width="0.33" stroke-miterlimit="10"/>
<path d="M334.064 127.627L282.263 98L230.486 68.3727" stroke="#CAECF1" stroke-width="0.33" stroke-miterlimit="10"/>
<path d="M257.23 74.7622L312.647 98L368.064 121.238" stroke="#CAECF1" stroke-width="0.33" stroke-miterlimit="10"/>
<path d="M401.162 114.464L343.03 98L284.891 81.536" stroke="#CAECF1" stroke-width="0.33" stroke-miterlimit="10"/>
<path d="M313.494 88.592L373.422 98L433.334 107.408" stroke="#CAECF1" stroke-width="0.33" stroke-miterlimit="10"/>
<path d="M464.502 100.258L403.79 98L343.078 95.7421" stroke="#CAECF1" stroke-width="0.33" stroke-miterlimit="10"/>
<path d="M373.642 102.971L434.166 98L494.698 93.0294" stroke="#CAECF1" stroke-width="0.33" stroke-miterlimit="10"/>
<path d="M523.905 85.8872L464.549 98L405.194 110.113" stroke="#CAECF1" stroke-width="0.33" stroke-miterlimit="10"/>
<path d="M437.704 117.059L494.925 98L552.147 78.9409" stroke="#CAECF1" stroke-width="0.33" stroke-miterlimit="10"/>
<path d="M579.463 72.3083L525.333 98L471.202 123.692" stroke="#CAECF1" stroke-width="0.33" stroke-miterlimit="10"/>
<path d="M505.477 129.909L555.685 98L605.893 66.0912" stroke="#CAECF1" stroke-width="0.33" stroke-miterlimit="10"/>
<path d="M631.522 60.368L586.069 98L540.615 135.632" stroke="#CAECF1" stroke-width="0.33" stroke-miterlimit="10"/>
<path d="M576.498 140.697L616.452 98C638.583 74.3702 656.399 55.3033 656.399 55.3033" stroke="#CAECF1" stroke-width="0.33" stroke-miterlimit="10"/>
<path d="M680.632 50.9052L646.828 98L613.032 145.095" stroke="#CAECF1" stroke-width="0.33" stroke-miterlimit="10"/>
<path d="M650.107 148.717L677.212 98L704.308 47.2831" stroke="#CAECF1" stroke-width="0.33" stroke-miterlimit="10"/>
<path d="M727.553 44.4763C727.553 44.4763 718.602 68.3805 707.619 98L687.661 151.524" stroke="#CAECF1" stroke-width="0.33" stroke-miterlimit="10"/>
<path d="M737.971 98C731.052 128.686 725.474 153.46 725.474 153.46C725.474 153.46 731.06 128.686 737.971 98ZM737.971 98C744.891 67.3142 750.468 42.5398 750.468 42.5398C750.468 42.5398 744.883 67.3142 737.971 98Z" stroke="#CAECF1" stroke-width="0.33" stroke-miterlimit="10"/>
<path d="M773.18 41.552C773.18 41.552 771.022 66.7811 768.347 98.0392C765.672 129.297 763.522 154.526 763.522 154.526C763.522 154.526 765.672 129.258 768.347 98C771.022 66.7419 773.18 41.552 773.18 41.552Z" stroke="#CAECF1" stroke-width="0.33" stroke-miterlimit="10"/>
<path d="M801.649 154.605C801.649 154.605 800.347 129.321 798.731 97.9999C797.115 66.6791 795.812 41.3951 795.812 41.3951" stroke="#CAECF1" stroke-width="0.33" stroke-miterlimit="10"/>
<path d="M829.114 98C823.207 67.1261 818.5 42.2028 818.5 42.2028C818.5 42.2028 823.239 67.1261 829.114 98ZM829.114 98L839.721 153.797" stroke="#CAECF1" stroke-width="0.33" stroke-miterlimit="10"/>
<path d="M859.49 98.0001C869.532 127.933 877.628 152.096 877.628 152.096C877.628 152.096 869.532 127.925 859.49 98.0001ZM859.49 98.0001L841.353 43.9041" stroke="#CAECF1" stroke-width="0.33" stroke-miterlimit="10"/>
<path d="M864.519 46.5068C864.519 46.5068 875.847 69.5094 889.89 98L915.26 149.493L889.874 98C875.831 69.5094 864.519 46.5068 864.519 46.5068Z" stroke="#CAECF1" stroke-width="0.33" stroke-miterlimit="10"/>
<path d="M952.438 146.067C952.438 146.067 938.066 124.593 920.273 98L888.109 49.933L920.219 98C938.066 124.593 952.438 146.067 952.438 146.067Z" stroke="#CAECF1" stroke-width="0.33" stroke-miterlimit="10"/>
<path d="M912.146 54.1431L950.634 98L989.074 141.857" stroke="#CAECF1" stroke-width="0.33" stroke-miterlimit="10"/>
<path d="M1025.17 136.933L981.009 98L936.858 59.0665" stroke="#CAECF1" stroke-width="0.33" stroke-miterlimit="10"/>
<path d="M962.283 64.6251L1011.39 98L1060.49 131.375" stroke="#CAECF1" stroke-width="0.33" stroke-miterlimit="10"/>
<path d="M1095.03 125.275L1041.77 98L988.509 70.7246" stroke="#CAECF1" stroke-width="0.33" stroke-miterlimit="10"/>
<path d="M1015.61 77.271L1072.15 98L1128.7 118.729" stroke="#CAECF1" stroke-width="0.33" stroke-miterlimit="10"/>
<path d="M1161.45 111.853L1102.54 98L1043.61 84.1467" stroke="#CAECF1" stroke-width="0.33" stroke-miterlimit="10"/>
<path d="M1072.58 91.2498L1132.91 98L1193.24 104.75" stroke="#CAECF1" stroke-width="0.33" stroke-miterlimit="10"/>
<path d="M1224.06 97.5375L1163.3 98L1102.54 98.4626" stroke="#CAECF1" stroke-width="0.33" stroke-miterlimit="10"/>
<path d="M1133.47 105.668L1193.67 98L1253.87 90.3325" stroke="#CAECF1" stroke-width="0.33" stroke-miterlimit="10"/>
<path d="M1282.72 83.2451L1224.06 98L1165.39 112.755" stroke="#CAECF1" stroke-width="0.33" stroke-miterlimit="10"/>
<path d="M1198.26 119.591L1254.42 98.0001L1310.59 76.4087" stroke="#CAECF1" stroke-width="0.33" stroke-miterlimit="10"/>
<path d="M1337.57 69.9171L1284.81 98L1232.04 126.083" stroke="#CAECF1" stroke-width="0.33" stroke-miterlimit="10"/>
<path d="M1266.69 132.12L1315.19 98L1363.7 63.8804" stroke="#CAECF1" stroke-width="0.33" stroke-miterlimit="10"/>
<path d="M1389.04 58.4001L1345.57 98L1302.11 137.6" stroke="#CAECF1" stroke-width="0.33" stroke-miterlimit="10"/>
<path d="M1338.25 142.437L1375.96 98L1413.67 53.5629" stroke="#CAECF1" stroke-width="0.33" stroke-miterlimit="10"/>
<path d="M1437.67 49.4469L1406.33 98M1406.33 98C1389 124.868 1374.95 146.553 1374.95 146.553C1374.95 146.553 1388.96 124.868 1406.33 98Z" stroke="#CAECF1" stroke-width="0.33" stroke-miterlimit="10"/>
<path d="M1412.26 149.877C1412.26 149.877 1423.18 126.702 1436.72 98L1461.18 46.1227" stroke="#CAECF1" stroke-width="0.33" stroke-miterlimit="10"/>
<path d="M1484.27 43.6453L1467.09 98L1449.91 152.355" stroke="#CAECF1" stroke-width="0.33" stroke-miterlimit="10"/>
<path d="M1497.48 98C1492.15 128.96 1487.84 153.954 1487.84 153.954C1487.84 153.954 1492.12 128.96 1497.48 98ZM1497.48 98L1507.1 42.0459" stroke="#CAECF1" stroke-width="0.33" stroke-miterlimit="10"/>
<path d="M1529.78 41.356C1529.78 41.356 1528.92 66.64 1527.85 98L1525.94 154.644" stroke="#CAECF1" stroke-width="0.33" stroke-miterlimit="10"/>
<ellipse cx="39.225" cy="154.668" rx="3.8872" ry="3.88472" fill="#A9F1FC"/>
<ellipse cx="39.225" cy="41.3325" rx="3.8872" ry="3.88472" fill="#A9F1FC"/>
<ellipse cx="61.8735" cy="41.795" rx="3.8872" ry="3.88472" fill="#A9F1FC"/>
<ellipse cx="77.336" cy="154.205" rx="3.8872" ry="3.88472" fill="#A9F1FC"/>
<ellipse cx="115.322" cy="152.833" rx="3.8872" ry="3.88472" fill="#A9F1FC"/>
<ellipse cx="84.6476" cy="43.1671" rx="3.8872" ry="3.88472" fill="#A9F1FC"/>
<ellipse cx="107.673" cy="45.4328" rx="3.8872" ry="3.88472" fill="#A9F1FC"/>
<ellipse cx="153.056" cy="150.567" rx="3.8872" ry="3.88472" fill="#A9F1FC"/>
<ellipse cx="190.422" cy="147.447" rx="3.8872" ry="3.88472" fill="#A9F1FC"/>
<ellipse cx="131.066" cy="48.5532" rx="3.8872" ry="3.88472" fill="#A9F1FC"/>
<ellipse cx="154.939" cy="52.4731" rx="3.8872" ry="3.88472" fill="#A9F1FC"/>
<ellipse cx="227.309" cy="143.527" rx="3.8872" ry="3.88472" fill="#A9F1FC"/>
<ellipse cx="263.608" cy="138.862" rx="3.8872" ry="3.88472" fill="#A9F1FC"/>
<ellipse cx="179.407" cy="57.1379" rx="3.8872" ry="3.88472" fill="#A9F1FC"/>
<ellipse cx="204.551" cy="62.4691" rx="3.8872" ry="3.88472" fill="#A9F1FC"/>
<ellipse cx="299.216" cy="133.531" rx="3.8872" ry="3.88472" fill="#A9F1FC"/>
<ellipse cx="334.064" cy="127.627" rx="3.8872" ry="3.88472" fill="#A9F1FC"/>
<ellipse cx="230.47" cy="68.3726" rx="3.8872" ry="3.88472" fill="#A9F1FC"/>
<ellipse cx="257.23" cy="74.7623" rx="3.8872" ry="3.88472" fill="#A9F1FC"/>
<ellipse cx="368.064" cy="121.238" rx="3.8872" ry="3.88472" fill="#A9F1FC"/>
<ellipse cx="401.162" cy="114.472" rx="3.8872" ry="3.88472" fill="#A9F1FC"/>
<ellipse cx="284.891" cy="81.5282" rx="3.8872" ry="3.88472" fill="#A9F1FC"/>
<ellipse cx="313.494" cy="88.5606" rx="3.8872" ry="3.88472" fill="#A9F1FC"/>
<ellipse cx="433.319" cy="107.439" rx="3.8872" ry="3.88472" fill="#A9F1FC"/>
<ellipse cx="464.502" cy="100.258" rx="3.8872" ry="3.88472" fill="#A9F1FC"/>
<ellipse cx="343.078" cy="95.7421" rx="3.8872" ry="3.88472" fill="#A9F1FC"/>
<ellipse cx="373.642" cy="102.971" rx="3.8872" ry="3.88472" fill="#A9F1FC"/>
<ellipse cx="494.698" cy="93.0295" rx="3.8872" ry="3.88472" fill="#A9F1FC"/>
<ellipse cx="523.905" cy="85.8872" rx="3.8872" ry="3.88472" fill="#A9F1FC"/>
<ellipse cx="405.194" cy="110.113" rx="3.8872" ry="3.88472" fill="#A9F1FC"/>
<ellipse cx="437.704" cy="117.059" rx="3.8872" ry="3.88472" fill="#A9F1FC"/>
<ellipse cx="552.147" cy="78.941" rx="3.8872" ry="3.88472" fill="#A9F1FC"/>
<ellipse cx="579.463" cy="72.3083" rx="3.8872" ry="3.88472" fill="#A9F1FC"/>
<ellipse cx="471.155" cy="123.692" rx="3.8872" ry="3.88472" fill="#A9F1FC"/>
<ellipse cx="505.477" cy="129.909" rx="3.8872" ry="3.88472" fill="#A9F1FC"/>
<ellipse cx="605.901" cy="66.0913" rx="3.8872" ry="3.88472" fill="#A9F1FC"/>
<ellipse cx="631.523" cy="60.3916" rx="3.8872" ry="3.88472" fill="#A9F1FC"/>
<ellipse cx="540.615" cy="135.608" rx="3.8872" ry="3.88472" fill="#A9F1FC"/>
<ellipse cx="576.498" cy="140.697" rx="3.8872" ry="3.88472" fill="#A9F1FC"/>
<ellipse cx="656.399" cy="55.3034" rx="3.8872" ry="3.88472" fill="#A9F1FC"/>
<ellipse cx="680.632" cy="50.9051" rx="3.8872" ry="3.88472" fill="#A9F1FC"/>
<ellipse cx="613.032" cy="145.095" rx="3.8872" ry="3.88472" fill="#A9F1FC"/>
<ellipse cx="650.107" cy="148.717" rx="3.8872" ry="3.88472" fill="#A9F1FC"/>
<ellipse cx="704.308" cy="47.283" rx="3.8872" ry="3.88472" fill="#A9F1FC"/>
<ellipse cx="727.553" cy="44.4763" rx="3.8872" ry="3.88472" fill="#A9F1FC"/>
<ellipse cx="687.63" cy="151.524" rx="3.8872" ry="3.88472" fill="#A9F1FC"/>
<ellipse cx="725.474" cy="153.46" rx="3.8872" ry="3.88472" fill="#A9F1FC"/>
<ellipse cx="750.468" cy="42.5399" rx="3.8872" ry="3.88472" fill="#A9F1FC"/>
<ellipse cx="773.18" cy="41.5128" rx="3.8872" ry="3.88472" fill="#A9F1FC"/>
<ellipse cx="763.522" cy="154.487" rx="3.8872" ry="3.88472" fill="#A9F1FC"/>
<ellipse cx="801.649" cy="154.605" rx="3.8872" ry="3.88472" fill="#A9F1FC"/>
<ellipse cx="795.812" cy="41.3952" rx="3.8872" ry="3.88472" fill="#A9F1FC"/>
<ellipse cx="818.5" cy="42.2027" rx="3.8872" ry="3.88472" fill="#A9F1FC"/>
<ellipse cx="839.721" cy="153.797" rx="3.8872" ry="3.88472" fill="#A9F1FC"/>
<ellipse cx="877.628" cy="152.088" rx="3.8872" ry="3.88472" fill="#A9F1FC"/>
<ellipse cx="841.353" cy="43.9118" rx="3.8872" ry="3.88472" fill="#A9F1FC"/>
<ellipse cx="864.503" cy="46.5069" rx="3.8872" ry="3.88472" fill="#A9F1FC"/>
<ellipse cx="915.245" cy="149.493" rx="3.8872" ry="3.88472" fill="#A9F1FC"/>
<ellipse cx="952.438" cy="146.067" rx="3.8872" ry="3.88472" fill="#A9F1FC"/>
<ellipse cx="888.062" cy="49.9329" rx="3.8872" ry="3.88472" fill="#A9F1FC"/>
<ellipse cx="912.146" cy="54.143" rx="3.8872" ry="3.88472" fill="#A9F1FC"/>
<ellipse cx="989.113" cy="141.857" rx="3.8872" ry="3.88472" fill="#A9F1FC"/>
<ellipse cx="1025.17" cy="136.933" rx="3.8872" ry="3.88472" fill="#A9F1FC"/>
<ellipse cx="936.858" cy="59.0666" rx="3.8872" ry="3.88472" fill="#A9F1FC"/>
<ellipse cx="962.283" cy="64.6251" rx="3.8872" ry="3.88472" fill="#A9F1FC"/>
<ellipse cx="1060.49" cy="131.375" rx="3.8872" ry="3.88472" fill="#A9F1FC"/>
<ellipse cx="1095.04" cy="125.275" rx="3.8872" ry="3.88472" fill="#A9F1FC"/>
<ellipse cx="988.509" cy="70.7247" rx="3.8872" ry="3.88472" fill="#A9F1FC"/>
<ellipse cx="1015.61" cy="77.2711" rx="3.8872" ry="3.88472" fill="#A9F1FC"/>
<ellipse cx="1128.7" cy="118.729" rx="3.8872" ry="3.88472" fill="#A9F1FC"/>
<ellipse cx="1161.45" cy="111.853" rx="3.8872" ry="3.88472" fill="#A9F1FC"/>
<ellipse cx="1043.61" cy="84.1467" rx="3.8872" ry="3.88472" fill="#A9F1FC"/>
<ellipse cx="1072.58" cy="91.2497" rx="3.8872" ry="3.88472" fill="#A9F1FC"/>
<ellipse cx="1193.24" cy="104.75" rx="3.8872" ry="3.88472" fill="#A9F1FC"/>
<ellipse cx="1224.06" cy="97.5374" rx="3.8872" ry="3.88472" fill="#A9F1FC"/>
<ellipse cx="1102.54" cy="98.4626" rx="3.8872" ry="3.88472" fill="#A9F1FC"/>
<ellipse cx="1133.47" cy="105.668" rx="3.8872" ry="3.88472" fill="#A9F1FC"/>
<ellipse cx="1253.87" cy="90.3325" rx="3.8872" ry="3.88472" fill="#A9F1FC"/>
<ellipse cx="1282.72" cy="83.2451" rx="3.8872" ry="3.88472" fill="#A9F1FC"/>
<ellipse cx="1165.39" cy="112.755" rx="3.8872" ry="3.88472" fill="#A9F1FC"/>
<ellipse cx="1198.26" cy="119.591" rx="3.8872" ry="3.88472" fill="#A9F1FC"/>
<ellipse cx="1310.61" cy="76.4086" rx="3.8872" ry="3.88472" fill="#A9F1FC"/>
<ellipse cx="1337.59" cy="69.9171" rx="3.8872" ry="3.88472" fill="#A9F1FC"/>
<ellipse cx="1232.04" cy="126.083" rx="3.8872" ry="3.88472" fill="#A9F1FC"/>
<ellipse cx="1266.69" cy="132.12" rx="3.8872" ry="3.88472" fill="#A9F1FC"/>
<ellipse cx="1363.7" cy="63.8803" rx="3.8872" ry="3.88472" fill="#A9F1FC"/>
<ellipse cx="1389.04" cy="58.4001" rx="3.8872" ry="3.88472" fill="#A9F1FC"/>
<ellipse cx="1302.11" cy="137.6" rx="3.8872" ry="3.88472" fill="#A9F1FC"/>
<ellipse cx="1338.25" cy="142.437" rx="3.8872" ry="3.88472" fill="#A9F1FC"/>
<ellipse cx="1413.66" cy="53.5629" rx="3.8872" ry="3.88472" fill="#A9F1FC"/>
<ellipse cx="1437.67" cy="49.4469" rx="3.8872" ry="3.88472" fill="#A9F1FC"/>
<ellipse cx="1374.99" cy="146.553" rx="3.8872" ry="3.88472" fill="#A9F1FC"/>
<ellipse cx="1412.26" cy="149.877" rx="3.8872" ry="3.88472" fill="#A9F1FC"/>
<ellipse cx="1461.18" cy="46.1228" rx="3.8872" ry="3.88472" fill="#A9F1FC"/>
<ellipse cx="1484.28" cy="43.6452" rx="3.8872" ry="3.88472" fill="#A9F1FC"/>
<ellipse cx="1449.91" cy="152.355" rx="3.8872" ry="3.88472" fill="#A9F1FC"/>
<ellipse cx="1487.84" cy="153.954" rx="3.8872" ry="3.88472" fill="#A9F1FC"/>
<ellipse cx="1507.1" cy="42.046" rx="3.8872" ry="3.88472" fill="#A9F1FC"/>
<ellipse cx="1529.78" cy="41.356" rx="3.8872" ry="3.88472" fill="#A9F1FC"/>
<ellipse cx="1525.94" cy="154.644" rx="3.8872" ry="3.88472" fill="#A9F1FC"/>
</g>
</svg>
