<svg width="24" height="24" viewBox="0 0 24 24" fill="none" xmlns="http://www.w3.org/2000/svg">
<path opacity="0.4" d="M22 12C22 6.47715 17.5228 2 12 2C6.47715 2 2 6.47715 2 12C2 17.5228 6.47715 22 12 22C17.5228 22 22 17.5228 22 12Z" fill="#CAECF1"/>
<path d="M14 2.20004C13.3538 2.06886 12.6849 2 12 2C6.47715 2 2 6.47715 2 12C2 17.5228 6.47715 22 12 22C17.5228 22 22 17.5228 22 12C22 11.3151 21.9311 10.6462 21.8 10" stroke="#CAECF1" stroke-width="1.5" stroke-linecap="round"/>
<path d="M12 9C10.8954 9 10 9.67157 10 10.5C10 11.3284 10.8954 12 12 12C13.1046 12 14 12.6716 14 13.5C14 14.3284 13.1046 15 12 15M12 9C12.8708 9 13.6116 9.4174 13.8862 10M12 9V8M12 15C11.1292 15 10.3884 14.5826 10.1138 14M12 15V16" stroke="#CAECF1" stroke-width="1.5" stroke-linecap="round"/>
<path d="M22.0699 3.03641C22.3641 2.74488 22.3663 2.27001 22.0748 1.97576C21.7832 1.68151 21.3084 1.67931 21.0141 1.97084L22.0699 3.03641ZM16.4721 6.47088C16.1779 6.76241 16.1757 7.23728 16.4672 7.53153C16.7587 7.82577 17.2336 7.82798 17.5279 7.53645L16.4721 6.47088ZM17.5101 1.25788C17.0959 1.25221 16.7556 1.58337 16.7499 1.99755C16.7442 2.41172 17.0754 2.75207 17.4896 2.75774L17.5101 1.25788ZM21.2457 6.51394C21.2514 6.92811 21.5918 7.25925 22.0059 7.25355C22.4201 7.24786 22.7512 6.90749 22.7455 6.49331L21.2457 6.51394ZM21.0141 1.97084L16.4721 6.47088L17.5279 7.53645L22.0699 3.03641L21.0141 1.97084ZM20.8975 2.9692C20.948 2.97814 20.9755 2.99705 20.9909 3.01249C21.0064 3.02794 21.0253 3.05545 21.0343 3.10603L22.5113 2.84471C22.3872 2.14334 21.8607 1.61643 21.1591 1.49218L20.8975 2.9692ZM21.1591 1.49218C20.1444 1.31248 18.3469 1.26934 17.5101 1.25788L17.4896 2.75774C18.3571 2.76962 20.0255 2.81476 20.8975 2.9692L21.1591 1.49218ZM22.7455 6.49331C22.734 5.6565 22.6908 3.85927 22.5113 2.84471L21.0343 3.10603C21.1885 3.9781 21.2338 5.64646 21.2457 6.51394L22.7455 6.49331Z" fill="#CAECF1"/>
</svg>
