<svg width="24" height="24" viewBox="0 0 24 24" fill="none" xmlns="http://www.w3.org/2000/svg">
<path opacity="0.4" d="M22 12C22 6.47715 17.5228 2 12 2C6.47715 2 2 6.47715 2 12C2 17.5228 6.47715 22 12 22C17.5228 22 22 17.5228 22 12Z" fill="#CAECF1"/>
<path d="M14 2.20004C13.3538 2.06886 12.6849 2 12 2C6.47715 2 2 6.47715 2 12C2 17.5228 6.47715 22 12 22C17.5228 22 22 17.5228 22 12C22 11.3151 21.9311 10.6462 21.8 10" stroke="#CAECF1" stroke-width="1.5" stroke-linecap="round"/>
<path d="M22.5235 2.5406C22.8177 2.24907 22.8199 1.7742 22.5284 1.47995C22.2369 1.1857 21.762 1.1835 21.4678 1.47503L22.5235 2.5406ZM21.4855 7.75359C21.8997 7.75926 22.24 7.4281 22.2457 7.01393C22.2514 6.59975 21.9202 6.2594 21.506 6.25373L21.4855 7.75359ZM17.7499 2.49754C17.7442 2.08336 17.4039 1.75222 16.9897 1.75792C16.5755 1.76362 16.2444 2.10399 16.2501 2.51816L17.7499 2.49754ZM17.9815 7.04064L22.5235 2.5406L21.4678 1.47503L16.9258 5.97506L17.9815 7.04064ZM18.0981 6.04228C18.0452 6.03291 18.0173 6.0126 18.0018 5.99602L16.9054 7.01968C17.1517 7.28344 17.4767 7.45558 17.8365 7.5193L18.0981 6.04228ZM18.0018 5.99602C17.9874 5.98059 17.9699 5.95355 17.9614 5.90545L16.4843 6.16676C16.5413 6.4887 16.6851 6.78373 16.9054 7.01968L18.0018 5.99602ZM17.8365 7.5193C18.8512 7.699 20.6487 7.74214 21.4855 7.75359L21.506 6.25373C20.6385 6.24186 18.9701 6.19671 18.0981 6.04228L17.8365 7.5193ZM16.2501 2.51816C16.2616 3.35498 16.3048 5.15221 16.4843 6.16676L17.9614 5.90545C17.8071 5.03337 17.7619 3.36501 17.7499 2.49754L16.2501 2.51816Z" fill="#CAECF1"/>
<path d="M12 9C10.8954 9 10 9.67157 10 10.5C10 11.3284 10.8954 12 12 12C13.1046 12 14 12.6716 14 13.5C14 14.3284 13.1046 15 12 15M12 9C12.8708 9 13.6116 9.4174 13.8862 10M12 9V8M12 15C11.1292 15 10.3884 14.5826 10.1138 14M12 15V16" stroke="#CAECF1" stroke-width="1.5" stroke-linecap="round"/>
</svg>
