<svg width="128" height="127" viewBox="0 0 128 127" fill="none" xmlns="http://www.w3.org/2000/svg">
<path d="M126.247 64.125C126.247 71 125.102 77.6667 123.02 83.9167C114.797 108.396 91.5844 126 64.4165 126C37.1444 126 13.9319 108.292 5.70869 83.8125C4.56368 80.375 3.73095 76.8333 3.21049 73.1875C2.79412 70.1667 2.58594 67.1458 2.58594 64.125C2.58594 59.6458 3.1064 55.2708 3.93913 51.1042C9.87236 23.1875 34.7503 2.25 64.4165 2.25C84.1939 2.25 101.785 11.5208 113.027 25.8958C113.86 26.9375 114.589 27.875 115.317 28.9167C117.711 32.25 119.689 35.8958 121.355 39.75C124.477 47.25 126.247 55.4792 126.247 64.125Z" fill="#1F2229" stroke="#2E333D" stroke-width="2" stroke-miterlimit="10"/>
<path d="M123.02 83.9167C114.797 108.396 91.5842 126 64.4163 126C56.0889 126 48.0738 124.333 40.7874 121.313C38.9138 120.583 37.1442 119.646 35.3747 118.708C21.5304 111.521 10.809 99.0208 5.7085 83.9167L31.0028 58.7083L40.267 49.4375C42.7652 46.9375 46.9288 46.9375 49.427 49.4375L54.0071 54.0208L77.3236 77.3542L92.3129 62.3542C94.8111 59.8542 98.9747 59.8542 101.473 62.3542L114.484 75.375L123.02 83.9167Z" fill="#2E333D" stroke="#6D7381" stroke-width="2"/>
<path d="M123.02 83.9167C114.797 108.396 91.5842 126 64.4163 126C56.0889 126 48.0738 124.333 40.7874 121.313C38.9138 120.583 37.1442 119.646 35.3747 118.708C21.5304 111.521 10.809 99.0208 5.7085 83.9167L31.0028 58.7083L40.267 49.4375C42.7652 46.9375 46.9288 46.9375 49.427 49.4375L54.0071 54.0208L77.3236 77.3542L92.3129 62.3542C94.8111 59.8542 98.9747 59.8542 101.473 62.3542L114.484 75.375L123.02 83.9167Z" fill="#1F2229" stroke="#2E333D" stroke-width="2" stroke-miterlimit="10"/>
<path d="M123.02 83.9165C114.797 108.396 91.5843 126 64.4164 126C56.089 126 48.074 124.333 40.7875 121.312C38.9139 120.583 37.1443 119.646 35.3748 118.708L77.2197 77.1457L92.313 62.354C94.8112 59.854 98.9748 59.854 101.473 62.354L123.02 83.9165Z" fill="#2E333D" stroke="#3E4450" stroke-width="2" stroke-miterlimit="10"/>
<path d="M121.25 39.7498H81.6954C81.9036 34.1248 86.4837 29.6457 92.1046 29.6457C92.4169 29.6457 92.6251 29.6457 92.9373 29.6457C94.3946 24.9582 98.7665 21.4165 103.971 21.4165C108.863 21.4165 113.131 24.5415 114.797 28.8123C115.005 28.8123 115.213 28.8123 115.317 28.8123C117.607 32.354 119.689 35.9998 121.25 39.7498Z" fill="#6D7381" stroke="#949BAB" stroke-width="2" stroke-miterlimit="10" stroke-linejoin="round"/>
<path d="M37.9771 73.2917H3.21049C2.79412 70.2708 2.58594 67.25 2.58594 64.2292C2.58594 59.75 3.1064 55.375 3.93913 51.2083C4.56368 51 5.18823 51 5.81278 51C11.8501 51 16.9506 54.75 18.9283 60.0625C23.6125 60.2708 27.568 63.5 28.8171 67.875C29.4416 67.7708 29.9621 67.6667 30.6907 67.6667C34.1257 67.5625 37.1444 69.9583 37.9771 73.2917Z" fill="#6D7381" stroke="#949BAB" stroke-width="2" stroke-miterlimit="10" stroke-linejoin="round"/>
<path d="M49.4273 49.4375L54.0073 54.0209L47.3455 60.6875L42.245 55.5834L35.2708 62.5625C35.2708 62.5625 33.0849 60.5834 31.0031 58.6042L40.2672 49.3334C42.7654 46.8334 46.825 46.8334 49.4273 49.4375Z" fill="#2E333D" stroke="#3E4450" stroke-width="2" stroke-miterlimit="10"/>
<path d="M114.485 75.3748L107.511 82.354L102.306 77.1457L94.8114 84.6457L82.4244 72.2498L92.3132 62.354C94.8114 59.854 98.975 59.854 101.473 62.354L114.485 75.3748Z" fill="#3E4450" stroke="#6D7381" stroke-width="2" stroke-miterlimit="10" stroke-linejoin="round"/>
<path d="M126.247 64.125C126.247 71 125.102 77.6667 123.02 83.9167C114.797 108.396 91.5845 126 64.4166 126C37.1445 126 13.9321 108.292 5.70881 83.8125C4.5638 80.375 3.73107 76.8333 3.21061 73.1875C2.79424 70.1667 2.58606 67.1458 2.58606 64.125C2.58606 59.6458 3.10652 55.2708 3.93925 51.1042C9.87248 23.1875 34.7504 2.25 64.4166 2.25C84.194 2.25 101.786 11.5208 113.027 25.8958C113.86 26.9375 114.589 27.875 115.317 28.9167C117.712 32.25 119.689 35.8958 121.355 39.75C124.478 47.25 126.247 55.4792 126.247 64.125Z" stroke="#2E333D" stroke-width="2" stroke-miterlimit="10"/>
<path d="M20.4897 38.5C30.8376 38.5 39.2262 30.1053 39.2262 19.75C39.2262 9.39466 30.8376 1 20.4897 1C10.1418 1 1.75317 9.39466 1.75317 19.75C1.75317 30.1053 10.1418 38.5 20.4897 38.5Z" fill="#3E4450" stroke="#6D7381" stroke-width="2" stroke-miterlimit="10" stroke-linejoin="round"/>
</svg>
