<svg width="1815" height="227" viewBox="0 0 1815 227" fill="none" xmlns="http://www.w3.org/2000/svg">
<path d="M52.2992 109.114H45.375V117.895H52.2992V109.114Z" fill="#38E5FF"/>
<path d="M66.1477 112.528H59.2234V114.481H66.1477V112.528Z" fill="#38E5FF"/>
<path d="M79.9961 109.378H73.0719V117.631H79.9961V109.378Z" fill="#38E5FF"/>
<path d="M93.8446 107.008H86.9203V120.001H93.8446V107.008Z" fill="#38E5FF"/>
<path d="M107.693 112.038H100.769V114.962H107.693V112.038Z" fill="#38E5FF"/>
<path d="M121.551 108.007H114.626V118.984H121.551V108.007Z" fill="#38E5FF"/>
<path d="M135.399 103.203H128.475V123.797H135.399V103.203Z" fill="#38E5FF"/>
<path d="M149.247 97.0652H142.323V129.935H149.247V97.0652Z" fill="#38E5FF"/>
<path d="M163.096 108.86H156.172V118.131H163.096V108.86Z" fill="#38E5FF"/>
<path d="M176.944 106.1H170.02V120.891H176.944V106.1Z" fill="#38E5FF"/>
<path d="M176.944 93.2698H173.478V110.522H176.944V93.2698Z" fill="#38E5FF"/>
<path d="M190.793 112.129H183.869V114.871H190.793V112.129Z" fill="#38E5FF"/>
<path d="M204.641 109.033H197.717V117.976H204.641V109.033Z" fill="#38E5FF"/>
<path d="M218.49 105.646H211.565V121.354H218.49V105.646Z" fill="#38E5FF"/>
<path d="M232.338 104.347H225.414V122.653H232.338V104.347Z" fill="#38E5FF"/>
<path d="M246.187 104.928H239.262V122.072H246.187V104.928Z" fill="#38E5FF"/>
<path d="M246.196 111.502H242.729V147.505H246.196V111.502Z" fill="#38E5FF"/>
<path d="M260.044 112.374H253.12V114.626H260.044V112.374Z" fill="#38E5FF"/>
<path d="M273.893 102.522H266.968V124.487H273.893V102.522Z" fill="#38E5FF"/>
<path d="M287.741 108.261H280.817V118.73H287.741V108.261Z" fill="#38E5FF"/>
<path d="M301.589 102.786H294.665V124.224H301.589V102.786Z" fill="#38E5FF"/>
<path d="M315.438 106.182H308.514V120.828H315.438V106.182Z" fill="#38E5FF"/>
<path d="M329.286 111.275H322.362V115.716H329.286V111.275Z" fill="#38E5FF"/>
<path d="M343.135 98.1276H336.211V128.882H343.135V98.1276Z" fill="#38E5FF"/>
<path d="M343.144 108.424H339.677V139.178H343.144V108.424Z" fill="#38E5FF"/>
<path d="M356.983 103.067H350.059V123.933H356.983V103.067Z" fill="#38E5FF"/>
<path d="M370.832 102.958H363.907V124.051H370.832V102.958Z" fill="#38E5FF"/>
<path d="M384.689 108.951H377.765V118.04H384.689V108.951Z" fill="#38E5FF"/>
<path d="M398.538 111.275H391.613V115.716H398.538V111.275Z" fill="#38E5FF"/>
<path d="M412.386 99.7529H405.462V127.247H412.386V99.7529Z" fill="#38E5FF"/>
<path d="M426.235 110.358H419.31V116.642H426.235V110.358Z" fill="#38E5FF"/>
<path d="M440.083 110.867H433.159V116.133H440.083V110.867Z" fill="#38E5FF"/>
<path d="M453.932 103.167H447.007V123.824H453.932V103.167Z" fill="#38E5FF"/>
<path d="M467.78 105.619H460.856V121.381H467.78V105.619Z" fill="#38E5FF"/>
<path d="M481.628 111.657H474.704V115.343H481.628V111.657Z" fill="#38E5FF"/>
<path d="M495.477 111.711H488.553V115.28H495.477V111.711Z" fill="#38E5FF"/>
<path d="M509.325 107.998H502.401V118.993H509.325V107.998Z" fill="#38E5FF"/>
<path d="M523.183 112.292H516.259V114.708H523.183V112.292Z" fill="#38E5FF"/>
<path d="M523.183 118.857H519.716V140.613H523.183V118.857Z" fill="#38E5FF"/>
<path d="M537.031 101.805H530.107V125.195H537.031V101.805Z" fill="#38E5FF"/>
<path d="M550.88 103.503H543.956V123.497H550.88V103.503Z" fill="#38E5FF"/>
<path d="M550.88 114.29H547.413V136.79H550.88V114.29Z" fill="#38E5FF"/>
<path d="M564.728 111.511H557.804V115.489H564.728V111.511Z" fill="#38E5FF"/>
<path d="M578.577 106.454H571.652V120.537H578.577V106.454Z" fill="#38E5FF"/>
<path d="M592.425 105.274H585.501V121.727H592.425V105.274Z" fill="#38E5FF"/>
<path d="M606.274 109.478H599.349V117.522H606.274V109.478Z" fill="#38E5FF"/>
<path d="M620.122 111.548H613.198V115.452H620.122V111.548Z" fill="#38E5FF"/>
<path d="M633.97 106.327H627.046V120.664H633.97V106.327Z" fill="#38E5FF"/>
<path d="M647.819 107.671H640.895V119.329H647.819V107.671Z" fill="#38E5FF"/>
<path d="M661.676 112.483H654.752V114.508H661.676V112.483Z" fill="#38E5FF"/>
<path d="M661.676 127.883H658.21V137.635H661.676V127.883Z" fill="#38E5FF"/>
<path d="M675.525 98.863H668.601V128.128H675.525V98.863Z" fill="#38E5FF"/>
<path d="M689.373 107.889H682.449V119.111H689.373V107.889Z" fill="#38E5FF"/>
<path d="M703.222 97.3921H696.297V129.599H703.222V97.3921Z" fill="#38E5FF"/>
<path d="M717.07 105.346H710.146V121.654H717.07V105.346Z" fill="#38E5FF"/>
<path d="M730.919 104.493H723.994V122.507H730.919V104.493Z" fill="#38E5FF"/>
<path d="M744.767 101.623H737.843V125.368H744.767V101.623Z" fill="#38E5FF"/>
<path d="M758.616 107.834H751.691V119.157H758.616V107.834Z" fill="#38E5FF"/>
<path d="M772.464 112.646H765.54V114.354H772.464V112.646Z" fill="#38E5FF"/>
<path d="M786.322 112.846H779.397V114.154H786.322V112.846Z" fill="#38E5FF"/>
<path d="M800.17 97.61H793.246V129.399H800.17V97.61Z" fill="#38E5FF"/>
<path d="M814.018 105.619H807.094V121.381H814.018V105.619Z" fill="#38E5FF"/>
<path d="M827.867 103.648H820.943V123.361H827.867V103.648Z" fill="#38E5FF"/>
<path d="M841.715 105.337H834.791V121.663H841.715V105.337Z" fill="#38E5FF"/>
<path d="M855.564 112.265H848.64V114.744H855.564V112.265Z" fill="#38E5FF"/>
<path d="M869.412 108.025H862.488V118.975H869.412V108.025Z" fill="#38E5FF"/>
<path d="M883.261 112.674H876.336V114.326H883.261V112.674Z" fill="#38E5FF"/>
<path d="M883.27 98.972H879.803V115.47H883.27V98.972Z" fill="#38E5FF"/>
<path d="M897.109 103.585H890.185V123.415H897.109V103.585Z" fill="#38E5FF"/>
<path d="M910.958 110.812H904.033V116.179H910.958V110.812Z" fill="#38E5FF"/>
<path d="M910.967 124.369H907.5V137.871H910.967V124.369Z" fill="#38E5FF"/>
<path d="M924.815 109.405H917.891V117.595H924.815V109.405Z" fill="#38E5FF"/>
<path d="M938.664 106.754H931.739V120.237H938.664V106.754Z" fill="#38E5FF"/>
<path d="M938.664 114.644H935.197V128.9H938.664V114.644Z" fill="#38E5FF"/>
<path d="M952.512 112.265H945.588V114.744H952.512V112.265Z" fill="#38E5FF"/>
<path d="M966.361 107.317H959.436V119.674H966.361V107.317Z" fill="#38E5FF"/>
<path d="M980.209 111.993H973.285V115.007H980.209V111.993Z" fill="#38E5FF"/>
<path d="M994.057 110.186H987.133V116.814H994.057V110.186Z" fill="#38E5FF"/>
<path d="M1007.91 112.065H1000.98V114.935H1007.91V112.065Z" fill="#38E5FF"/>
<path d="M1021.75 107.87H1014.83V119.12H1021.75V107.87Z" fill="#38E5FF"/>
<path d="M1035.6 112.656H1028.68V114.353H1035.6V112.656Z" fill="#38E5FF"/>
<path d="M1049.46 110.594H1042.54V116.396H1049.46V110.594Z" fill="#38E5FF"/>
<path d="M1063.31 113.019H1056.38V113.981H1063.31V113.019Z" fill="#38E5FF"/>
<path d="M1077.16 109.768H1070.23V117.223H1077.16V109.768Z" fill="#38E5FF"/>
<path d="M1091.01 109.623H1084.08V117.377H1091.01V109.623Z" fill="#38E5FF"/>
<path d="M1104.85 111.984H1097.93V115.016H1104.85V111.984Z" fill="#38E5FF"/>
<path d="M1118.7 98.7268H1111.78V128.264H1118.7V98.7268Z" fill="#38E5FF"/>
<path d="M1132.55 107.035H1125.63V119.965H1132.55V107.035Z" fill="#38E5FF"/>
<path d="M1146.4 104.247H1139.48V122.762H1146.4V104.247Z" fill="#38E5FF"/>
<path d="M1160.25 111.566H1153.32V115.434H1160.25V111.566Z" fill="#38E5FF"/>
<path d="M1174.1 107.162H1167.17V119.838H1174.1V107.162Z" fill="#38E5FF"/>
<path d="M1174.11 106.79H1170.64V122.544H1174.11V106.79Z" fill="#38E5FF"/>
<path d="M1187.95 105.882H1181.03V121.127H1187.95V105.882Z" fill="#38E5FF"/>
<path d="M1201.8 109.25H1194.88V117.74H1201.8V109.25Z" fill="#38E5FF"/>
<path d="M1215.65 101.496H1208.73V125.495H1215.65V101.496Z" fill="#38E5FF"/>
<path d="M1229.5 97.4465H1222.57V129.553H1229.5V97.4465Z" fill="#38E5FF"/>
<path d="M1243.35 113.001H1236.42V113.99H1243.35V113.001Z" fill="#38E5FF"/>
<path d="M1257.2 97.61H1250.27V129.381H1257.2V97.61Z" fill="#38E5FF"/>
<path d="M1271.04 112.193H1264.12V114.798H1271.04V112.193Z" fill="#38E5FF"/>
<path d="M1271.05 97.9551H1267.59V109.959H1271.05V97.9551Z" fill="#38E5FF"/>
<path d="M1284.89 101.523H1277.97V125.486H1284.89V101.523Z" fill="#38E5FF"/>
<path d="M1298.74 108.906H1291.82V118.104H1298.74V108.906Z" fill="#38E5FF"/>
<path d="M1312.6 112.456H1305.67V114.544H1312.6V112.456Z" fill="#38E5FF"/>
<path d="M1326.45 109.25H1319.52V117.74H1326.45V109.25Z" fill="#38E5FF"/>
<path d="M1340.3 103.557H1333.37V123.452H1340.3V103.557Z" fill="#38E5FF"/>
<path d="M1354.14 111.557H1347.22V115.443H1354.14V111.557Z" fill="#38E5FF"/>
<path d="M1367.99 109.677H1361.07V117.332H1367.99V109.677Z" fill="#38E5FF"/>
<path d="M1381.84 112.401H1374.92V114.59H1381.84V112.401Z" fill="#38E5FF"/>
<path d="M1395.69 99.0265H1388.77V127.964H1395.69V99.0265Z" fill="#38E5FF"/>
<path d="M1409.54 111.121H1402.61V115.879H1409.54V111.121Z" fill="#38E5FF"/>
<path d="M1423.39 107.58H1416.46V119.42H1423.39V107.58Z" fill="#38E5FF"/>
<path d="M1437.24 105.192H1430.31V121.817H1437.24V105.192Z" fill="#38E5FF"/>
<path d="M1451.09 100.198H1444.17V126.811H1451.09V100.198Z" fill="#38E5FF"/>
<path d="M1464.94 112.211H1458.02V114.789H1464.94V112.211Z" fill="#38E5FF"/>
<path d="M1464.94 89.5106H1461.47V115.016H1464.94V89.5106Z" fill="#38E5FF"/>
<path d="M1478.79 105.274H1471.87V121.727H1478.79V105.274Z" fill="#38E5FF"/>
<path d="M1492.64 107.825H1485.71V119.166H1492.64V107.825Z" fill="#38E5FF"/>
<path d="M1492.64 99.5441H1489.17V113.8H1492.64V99.5441Z" fill="#38E5FF"/>
<path d="M1506.49 103.639H1499.56V123.37H1506.49V103.639Z" fill="#38E5FF"/>
<path d="M1520.33 111.067H1513.41V115.942H1520.33V111.067Z" fill="#38E5FF"/>
<path d="M1534.18 108.016H1527.26V118.984H1534.18V108.016Z" fill="#38E5FF"/>
<path d="M1534.19 118.912H1530.73V144.417H1534.19V118.912Z" fill="#38E5FF"/>
<path d="M1548.03 105.746H1541.11V121.254H1548.03V105.746Z" fill="#38E5FF"/>
<path d="M1561.88 101.523H1554.96V125.486H1561.88V101.523Z" fill="#38E5FF"/>
<path d="M1575.73 110.186H1568.8V116.814H1575.73V110.186Z" fill="#38E5FF"/>
<path d="M1589.59 112.637H1582.66V114.363H1589.59V112.637Z" fill="#38E5FF"/>
<path d="M1603.43 106.463H1596.51V120.537H1603.43V106.463Z" fill="#38E5FF"/>
<path d="M1617.28 101.36H1610.36V125.631H1617.28V101.36Z" fill="#38E5FF"/>
<path d="M1631.13 103.957H1624.21V123.043H1631.13V103.957Z" fill="#38E5FF"/>
<path d="M1644.98 100.561H1638.06V126.439H1644.98V100.561Z" fill="#38E5FF"/>
<path d="M1658.83 112.556H1651.9V114.444H1658.83V112.556Z" fill="#38E5FF"/>
<path d="M1672.68 97.5828H1665.75V129.417H1672.68V97.5828Z" fill="#38E5FF"/>
<path d="M1686.53 104.72H1679.6V122.271H1686.53V104.72Z" fill="#38E5FF"/>
<path d="M1700.37 102.84H1693.45V124.16H1700.37V102.84Z" fill="#38E5FF"/>
<path d="M1714.23 108.996H1707.31V118.013H1714.23V108.996Z" fill="#38E5FF"/>
<path d="M1728.08 109.95H1721.16V117.041H1728.08V109.95Z" fill="#38E5FF"/>
<path d="M1741.93 112.701H1735V114.308H1741.93V112.701Z" fill="#38E5FF"/>
<path d="M1755.78 106.735H1748.85V120.265H1755.78V106.735Z" fill="#38E5FF"/>
<path d="M1769.63 111.502H1762.7V115.489H1769.63V111.502Z" fill="#38E5FF"/>
<path opacity="0.74" d="M52.3083 118.158H48.8417V127.91H52.3083V118.158Z" fill="#38E5FF"/>
<path opacity="0.55" d="M66.1568 168.988H62.6901V188.492H66.1568V168.988Z" fill="#38E5FF"/>
<path opacity="0.22" d="M80.0052 81.2297H76.5386V98.4817H80.0052V81.2297Z" fill="#38E5FF"/>
<path opacity="0.35" d="M93.8536 68.1454H90.387V97.4011H93.8536V68.1454Z" fill="#38E5FF"/>
<path opacity="0.63" d="M107.702 38.708H104.235V51.4563H107.702V38.708Z" fill="#38E5FF"/>
<path opacity="0.57" d="M121.551 53.4358H118.084V65.4396H121.551V53.4358Z" fill="#38E5FF"/>
<path opacity="0.33" d="M135.399 47.2705H131.932V68.2725H135.399V47.2705Z" fill="#38E5FF"/>
<path opacity="0.73" d="M149.247 47.5883H145.781V80.5941H149.247V47.5883Z" fill="#38E5FF"/>
<path opacity="0.5" d="M163.096 70.7332H159.629V103.739H163.096V70.7332Z" fill="#38E5FF"/>
<path opacity="0.36" d="M190.802 141.312H187.335V164.566H190.802V141.312Z" fill="#38E5FF"/>
<path opacity="0.34" d="M204.65 66.8289H201.184V82.5827H204.65V66.8289Z" fill="#38E5FF"/>
<path opacity="0.75" d="M218.499 50.8389H215.032V66.5927H218.499V50.8389Z" fill="#38E5FF"/>
<path opacity="0.27" d="M232.347 163.004H228.881V188.51H232.347V163.004Z" fill="#38E5FF"/>
<path opacity="0.17" d="M260.044 62.089H256.578V79.341H260.044V62.089Z" fill="#38E5FF"/>
<path opacity="0.26" d="M273.893 47.0979H270.426V81.6019H273.893V47.0979Z" fill="#38E5FF"/>
<path opacity="0.33" d="M287.741 95.4944H284.274V106H287.741V95.4944Z" fill="#38E5FF"/>
<path opacity="0.74" d="M301.589 50.7935H298.123V72.5491H301.589V50.7935Z" fill="#38E5FF"/>
<path opacity="0.65" d="M315.447 164.203H311.98V179.957H315.447V164.203Z" fill="#38E5FF"/>
<path opacity="0.22" d="M329.295 167.553H325.829V178.059H329.295V167.553Z" fill="#38E5FF"/>
<path opacity="0.52" d="M356.992 40.6057H353.526V74.3561H356.992V40.6057Z" fill="#38E5FF"/>
<path opacity="0.74" d="M370.841 45.6724H367.374V76.4263H370.841V45.6724Z" fill="#38E5FF"/>
<path opacity="0.45" d="M384.689 84.0898H381.223V96.0936H384.689V84.0898Z" fill="#38E5FF"/>
<path opacity="0.68" d="M398.538 48.1694H395.071V69.9251H398.538V48.1694Z" fill="#38E5FF"/>
<path opacity="0.1" d="M412.386 61.8621H408.92V89.6196H412.386V61.8621Z" fill="#38E5FF"/>
<path opacity="0.37" d="M426.235 50.7662H422.768V61.2718H426.235V50.7662Z" fill="#38E5FF"/>
<path opacity="0.63" d="M440.083 42.4762H436.616V75.482H440.083V42.4762Z" fill="#38E5FF"/>
<path opacity="0.31" d="M453.941 44.8643H450.474V80.8665H453.941V44.8643Z" fill="#38E5FF"/>
<path opacity="0.54" d="M467.789 58.1483H464.322V84.3986H467.789V58.1483Z" fill="#38E5FF"/>
<path opacity="0.12" d="M481.637 67.7458H478.171V103.003H481.637V67.7458Z" fill="#38E5FF"/>
<path opacity="0.69" d="M495.486 163.522H492.019V183.77H495.486V163.522Z" fill="#38E5FF"/>
<path opacity="0.27" d="M509.334 152.898H505.868V182.898H509.334V152.898Z" fill="#38E5FF"/>
<path opacity="0.25" d="M537.031 155.967H533.565V184.469H537.031V155.967Z" fill="#38E5FF"/>
<path opacity="0.34" d="M564.728 49.7947H561.262V64.0503H564.728V49.7947Z" fill="#38E5FF"/>
<path opacity="0.6" d="M578.577 51.9921H575.11V67.7459H578.577V51.9921Z" fill="#38E5FF"/>
<path opacity="0.32" d="M592.434 41.5773H588.968V58.0756H592.434V41.5773Z" fill="#38E5FF"/>
<path opacity="0.61" d="M606.283 38.6082H602.816V48.3601H606.283V38.6082Z" fill="#38E5FF"/>
<path opacity="0.8" d="M620.131 50.5302H616.664V72.2858H620.131V50.5302Z" fill="#38E5FF"/>
<path opacity="0.42" d="M633.979 47.8698H630.513V65.8754H633.979V47.8698Z" fill="#38E5FF"/>
<path opacity="0.16" d="M647.828 149.493H644.361V165.247H647.828V149.493Z" fill="#38E5FF"/>
<path opacity="0.12" d="M675.525 92.1711H672.058V125.177H675.525V92.1711Z" fill="#38E5FF"/>
<path opacity="0.45" d="M689.373 175.017H685.907V186.267H689.373V175.017Z" fill="#38E5FF"/>
<path opacity="0.4" d="M703.222 153.052H699.755V185.305H703.222V153.052Z" fill="#38E5FF"/>
<path opacity="0.36" d="M717.079 134.666H713.613V162.423H717.079V134.666Z" fill="#38E5FF"/>
<path opacity="0.18" d="M730.928 61.8439H727.461V87.3496H730.928V61.8439Z" fill="#38E5FF"/>
<path opacity="0.56" d="M744.776 77.2253H741.31V101.977H744.776V77.2253Z" fill="#38E5FF"/>
<path opacity="0.52" d="M758.625 58.7839H755.158V82.7824H758.625V58.7839Z" fill="#38E5FF"/>
<path opacity="0.58" d="M772.473 173.746H769.006V188.001H772.473V173.746Z" fill="#38E5FF"/>
<path opacity="0.14" d="M786.321 66.2931H782.855V79.0414H786.321V66.2931Z" fill="#38E5FF"/>
<path opacity="0.5" d="M800.17 149.847H796.703V185.849H800.17V149.847Z" fill="#38E5FF"/>
<path opacity="0.42" d="M814.018 65.3851H810.552V87.1408H814.018V65.3851Z" fill="#38E5FF"/>
<path opacity="0.35" d="M827.867 66.6744H824.4V91.4265H827.867V66.6744Z" fill="#38E5FF"/>
<path opacity="0.19" d="M841.715 39.1348H838.249V72.8851H841.715V39.1348Z" fill="#38E5FF"/>
<path opacity="0.75" d="M855.573 164.067H852.106V186.567H855.573V164.067Z" fill="#38E5FF"/>
<path opacity="0.4" d="M869.421 80.7756H865.955V101.778H869.421V80.7756Z" fill="#38E5FF"/>
<path opacity="0.53" d="M897.118 158.074H893.652V182.826H897.118V158.074Z" fill="#38E5FF"/>
<path opacity="0.58" d="M924.815 69.5165H921.348V98.0186H924.815V69.5165Z" fill="#38E5FF"/>
<path opacity="0.68" d="M952.512 164.303H949.045V180.801H952.512V164.303Z" fill="#38E5FF"/>
<path opacity="0.1" d="M966.36 153.997H962.894V185.504H966.36V153.997Z" fill="#38E5FF"/>
<path opacity="0.67" d="M980.218 59.483H976.751V77.4887H980.218V59.483Z" fill="#38E5FF"/>
<path opacity="0.15" d="M994.066 153.897H990.6V182.399H994.066V153.897Z" fill="#38E5FF"/>
<path opacity="0.28" d="M1007.91 147.305H1004.45V160.807H1007.91V147.305Z" fill="#38E5FF"/>
<path opacity="0.19" d="M1021.76 49.9399H1018.3V61.1901H1021.76V49.9399Z" fill="#38E5FF"/>
<path opacity="0.8" d="M1035.61 90.7183H1032.15V102.722H1035.61V90.7183Z" fill="#38E5FF"/>
<path opacity="0.67" d="M1049.46 170.504H1045.99V188.51H1049.46V170.504Z" fill="#38E5FF"/>
<path opacity="0.38" d="M1063.31 164.057H1059.84V173.056H1063.31V164.057Z" fill="#38E5FF"/>
<path opacity="0.77" d="M1077.16 162.904H1073.69V174.154H1077.16V162.904Z" fill="#38E5FF"/>
<path opacity="0.71" d="M1091.01 145.462H1087.54V178.467H1091.01V145.462Z" fill="#38E5FF"/>
<path opacity="0.18" d="M1104.85 38.9441H1101.39V60.6998H1104.85V38.9441Z" fill="#38E5FF"/>
<path opacity="0.15" d="M1118.71 121.154H1115.24V153.407H1118.71V121.154Z" fill="#38E5FF"/>
<path opacity="0.4" d="M1132.56 38.5265H1129.09V52.0284H1132.56V38.5265Z" fill="#38E5FF"/>
<path opacity="0.47" d="M1146.41 67.4553H1142.94V94.4592H1146.41V67.4553Z" fill="#38E5FF"/>
<path opacity="0.66" d="M1160.26 151.69H1156.79V181.691H1160.26V151.69Z" fill="#38E5FF"/>
<path opacity="0.65" d="M1187.95 72.7762H1184.49V105.782H1187.95V72.7762Z" fill="#38E5FF"/>
<path opacity="0.68" d="M1201.8 166.836H1198.34V187.838H1201.8V166.836Z" fill="#38E5FF"/>
<path opacity="0.47" d="M1215.65 49.4679H1212.18V73.4663H1215.65V49.4679Z" fill="#38E5FF"/>
<path opacity="0.49" d="M1229.5 53.5992H1226.03V85.8514H1229.5V53.5992Z" fill="#38E5FF"/>
<path opacity="0.44" d="M1243.36 43.6112H1239.89V53.3631H1243.36V43.6112Z" fill="#38E5FF"/>
<path opacity="0.28" d="M1257.21 151.046H1253.74V183.298H1257.21V151.046Z" fill="#38E5FF"/>
<path opacity="0.62" d="M1284.9 139.659H1281.44V163.658H1284.9V139.659Z" fill="#38E5FF"/>
<path opacity="0.5" d="M1298.75 158.228H1295.28V170.976H1298.75V158.228Z" fill="#38E5FF"/>
<path opacity="0.71" d="M1312.6 38.7444H1309.13V58.9928H1312.6V38.7444Z" fill="#38E5FF"/>
<path opacity="0.22" d="M1326.45 177.741H1322.98V188.247H1326.45V177.741Z" fill="#38E5FF"/>
<path opacity="0.45" d="M1340.3 52.7094H1336.83V77.4614H1340.3V52.7094Z" fill="#38E5FF"/>
<path opacity="0.77" d="M1354.14 38.5083H1350.68V61.0085H1354.14V38.5083Z" fill="#38E5FF"/>
<path opacity="0.63" d="M1367.99 156.957H1364.53V169.705H1367.99V156.957Z" fill="#38E5FF"/>
<path opacity="0.75" d="M1381.85 153.189H1378.38V163.694H1381.85V153.189Z" fill="#38E5FF"/>
<path opacity="0.17" d="M1395.7 150.356H1392.23V184.106H1395.7V150.356Z" fill="#38E5FF"/>
<path opacity="0.78" d="M1409.55 161.297H1406.08V182.299H1409.55V161.297Z" fill="#38E5FF"/>
<path opacity="0.62" d="M1423.4 42.5762H1419.93V56.8318H1423.4V42.5762Z" fill="#38E5FF"/>
<path opacity="0.61" d="M1437.24 79.686H1433.78V96.938H1437.24V79.686Z" fill="#38E5FF"/>
<path opacity="0.42" d="M1451.09 144.917H1447.63V178.667H1451.09V144.917Z" fill="#38E5FF"/>
<path opacity="0.69" d="M1478.79 73.321H1475.32V92.8249H1478.79V73.321Z" fill="#38E5FF"/>
<path opacity="0.67" d="M1506.49 49.3861H1503.02V76.39H1506.49V49.3861Z" fill="#38E5FF"/>
<path opacity="0.78" d="M1520.34 43.5295H1516.88V75.7817H1520.34V43.5295Z" fill="#38E5FF"/>
<path opacity="0.12" d="M1548.04 41.5138H1544.57V67.0195H1548.04V41.5138Z" fill="#38E5FF"/>
<path opacity="0.47" d="M1561.89 149.993H1558.42V174.745H1561.89V149.993Z" fill="#38E5FF"/>
<path opacity="0.8" d="M1575.74 174.808H1572.27V187.556H1575.74V174.808Z" fill="#38E5FF"/>
<path opacity="0.26" d="M1589.59 86.7776H1586.12V98.7813H1589.59V86.7776Z" fill="#38E5FF"/>
<path opacity="0.73" d="M1603.43 47.1252H1599.97V64.3772H1603.43V47.1252Z" fill="#38E5FF"/>
<path opacity="0.53" d="M1617.28 61.8621H1613.82V94.8679H1617.28V61.8621Z" fill="#38E5FF"/>
<path opacity="0.69" d="M1631.13 159.735H1627.66V179.239H1631.13V159.735Z" fill="#38E5FF"/>
<path opacity="0.12" d="M1644.99 126.475H1641.52V158.728H1644.99V126.475Z" fill="#38E5FF"/>
<path opacity="0.12" d="M1658.84 38.4901H1655.37V51.9921H1658.84V38.4901Z" fill="#38E5FF"/>
<path opacity="0.56" d="M1672.69 82.3738H1669.22V114.626H1672.69V82.3738Z" fill="#38E5FF"/>
<path opacity="0.13" d="M1686.53 133.776H1683.07V163.031H1686.53V133.776Z" fill="#38E5FF"/>
<path opacity="0.39" d="M1700.38 46.9254H1696.92V82.9276H1700.38V46.9254Z" fill="#38E5FF"/>
<path opacity="0.6" d="M1714.23 50.3577H1710.76V81.1116H1714.23V50.3577Z" fill="#38E5FF"/>
<path opacity="0.42" d="M1728.08 163.812H1724.61V185.568H1728.08V163.812Z" fill="#38E5FF"/>
<path opacity="0.66" d="M1741.93 171.73H1738.46V184.478H1741.93V171.73Z" fill="#38E5FF"/>
<path opacity="0.45" d="M1755.78 78.2333H1752.31V103.739H1755.78V78.2333Z" fill="#38E5FF"/>
<path opacity="0.71" d="M1769.62 161.079H1766.16V186.585H1769.62V161.079Z" fill="#38E5FF"/>
</svg>
