<svg width="645" height="292" viewBox="0 0 645 292" fill="none" xmlns="http://www.w3.org/2000/svg">
<g clip-path="url(#clip0_1_204)">
<rect width="645" height="292" rx="24" fill="#07090E"/>
<path d="M7.42502 121.274H0.500793V137.727H7.42502V121.274Z" fill="#38E5FF"/>
<path d="M21.2735 125.478H14.3493V133.522H21.2735V125.478Z" fill="#38E5FF"/>
<path d="M35.122 127.548H28.1978V131.452H35.122V127.548Z" fill="#38E5FF"/>
<path d="M48.9705 122.327H42.0463V136.664H48.9705V122.327Z" fill="#38E5FF"/>
<path d="M62.8188 123.671H55.8946V135.329H62.8188V123.671Z" fill="#38E5FF"/>
<path d="M76.6764 128.483H69.7521V130.508H76.6764V128.483Z" fill="#38E5FF"/>
<path d="M76.6764 143.883H73.2097V153.635H76.6764V143.883Z" fill="#38E5FF"/>
<path d="M90.5248 114.863H83.6006V144.128H90.5248V114.863Z" fill="#38E5FF"/>
<path d="M104.373 123.889H97.4491V135.111H104.373V123.889Z" fill="#38E5FF"/>
<path d="M118.222 113.392H111.297V145.599H118.222V113.392Z" fill="#38E5FF"/>
<path d="M132.07 121.346H125.146V137.654H132.07V121.346Z" fill="#38E5FF"/>
<path d="M145.919 120.493H138.994V138.507H145.919V120.493Z" fill="#38E5FF"/>
<path d="M159.767 117.623H152.843V141.368H159.767V117.623Z" fill="#38E5FF"/>
<path d="M173.616 123.834H166.691V135.157H173.616V123.834Z" fill="#38E5FF"/>
<path d="M187.464 128.646H180.54V130.354H187.464V128.646Z" fill="#38E5FF"/>
<path d="M201.322 128.846H194.397V130.154H201.322V128.846Z" fill="#38E5FF"/>
<path d="M215.17 113.61H208.246V145.399H215.17V113.61Z" fill="#38E5FF"/>
<path d="M229.018 121.619H222.094V137.381H229.018V121.619Z" fill="#38E5FF"/>
<path d="M242.867 119.648H235.943V139.361H242.867V119.648Z" fill="#38E5FF"/>
<path d="M256.715 121.337H249.791V137.663H256.715V121.337Z" fill="#38E5FF"/>
<path d="M270.564 128.265H263.64V130.744H270.564V128.265Z" fill="#38E5FF"/>
<path d="M284.412 124.025H277.488V134.975H284.412V124.025Z" fill="#38E5FF"/>
<path d="M298.261 128.674H291.336V130.326H298.261V128.674Z" fill="#38E5FF"/>
<path d="M298.27 114.972H294.803V131.47H298.27V114.972Z" fill="#38E5FF"/>
<path d="M312.109 119.585H305.185V139.415H312.109V119.585Z" fill="#38E5FF"/>
<path d="M325.958 126.812H319.033V132.179H325.958V126.812Z" fill="#38E5FF"/>
<path d="M325.967 140.369H322.5V153.871H325.967V140.369Z" fill="#38E5FF"/>
<path d="M339.815 125.405H332.891V133.595H339.815V125.405Z" fill="#38E5FF"/>
<path d="M353.664 122.754H346.739V136.237H353.664V122.754Z" fill="#38E5FF"/>
<path d="M353.664 130.644H350.197V144.9H353.664V130.644Z" fill="#38E5FF"/>
<path d="M367.512 128.265H360.588V130.744H367.512V128.265Z" fill="#38E5FF"/>
<path d="M381.361 123.317H374.436V135.674H381.361V123.317Z" fill="#38E5FF"/>
<path d="M395.209 127.993H388.285V131.007H395.209V127.993Z" fill="#38E5FF"/>
<path d="M409.057 126.186H402.133V132.814H409.057V126.186Z" fill="#38E5FF"/>
<path d="M422.906 128.065H415.982V130.935H422.906V128.065Z" fill="#38E5FF"/>
<path d="M436.754 123.87H429.83V135.12H436.754V123.87Z" fill="#38E5FF"/>
<path d="M450.603 128.656H443.678V130.353H450.603V128.656Z" fill="#38E5FF"/>
<path d="M464.46 126.594H457.536V132.396H464.46V126.594Z" fill="#38E5FF"/>
<path d="M478.309 129.019H471.385V129.981H478.309V129.019Z" fill="#38E5FF"/>
<path d="M492.157 125.768H485.233V133.223H492.157V125.768Z" fill="#38E5FF"/>
<path d="M506.006 125.623H499.081V133.377H506.006V125.623Z" fill="#38E5FF"/>
<path d="M519.854 127.984H512.93V131.016H519.854V127.984Z" fill="#38E5FF"/>
<path d="M533.702 114.727H526.778V144.264H533.702V114.727Z" fill="#38E5FF"/>
<path d="M547.551 123.035H540.627V135.965H547.551V123.035Z" fill="#38E5FF"/>
<path d="M561.399 120.247H554.475V138.762H561.399V120.247Z" fill="#38E5FF"/>
<path d="M575.248 127.566H568.324V131.434H575.248V127.566Z" fill="#38E5FF"/>
<path d="M589.096 123.162H582.172V135.838H589.096V123.162Z" fill="#38E5FF"/>
<path d="M589.105 122.79H585.639V138.544H589.105V122.79Z" fill="#38E5FF"/>
<path d="M602.954 121.882H596.03V137.127H602.954V121.882Z" fill="#38E5FF"/>
<path d="M616.802 125.25H609.878V133.74H616.802V125.25Z" fill="#38E5FF"/>
<path d="M630.651 117.496H623.727V141.495H630.651V117.496Z" fill="#38E5FF"/>
<path d="M644.499 113.447H637.575V145.553H644.499V113.447Z" fill="#38E5FF"/>
<path opacity="0.32" d="M7.43419 57.5773H3.96753V74.0756H7.43419V57.5773Z" fill="#38E5FF"/>
<path opacity="0.61" d="M21.2826 54.6082H17.8159V64.3601H21.2826V54.6082Z" fill="#38E5FF"/>
<path opacity="0.8" d="M35.1311 66.5302H31.6644V88.2858H35.1311V66.5302Z" fill="#38E5FF"/>
<path opacity="0.42" d="M48.9795 63.8698H45.5129V81.8754H48.9795V63.8698Z" fill="#38E5FF"/>
<path opacity="0.16" d="M62.8279 165.493H59.3613V181.247H62.8279V165.493Z" fill="#38E5FF"/>
<path opacity="0.12" d="M90.5249 108.171H87.0582V141.177H90.5249V108.171Z" fill="#38E5FF"/>
<path opacity="0.45" d="M104.373 191.017H100.907V202.267H104.373V191.017Z" fill="#38E5FF"/>
<path opacity="0.4" d="M118.222 169.052H114.755V201.305H118.222V169.052Z" fill="#38E5FF"/>
<path opacity="0.36" d="M132.079 150.666H128.613V178.423H132.079V150.666Z" fill="#38E5FF"/>
<path opacity="0.18" d="M145.928 77.8439H142.461V103.35H145.928V77.8439Z" fill="#38E5FF"/>
<path opacity="0.56" d="M159.776 93.2253H156.31V117.977H159.776V93.2253Z" fill="#38E5FF"/>
<path opacity="0.52" d="M173.625 74.7839H170.158V98.7824H173.625V74.7839Z" fill="#38E5FF"/>
<path opacity="0.58" d="M187.473 189.746H184.006V204.001H187.473V189.746Z" fill="#38E5FF"/>
<path opacity="0.14" d="M201.321 82.2931H197.855V95.0414H201.321V82.2931Z" fill="#38E5FF"/>
<path opacity="0.5" d="M215.17 165.847H211.703V201.849H215.17V165.847Z" fill="#38E5FF"/>
<path opacity="0.42" d="M229.018 81.3851H225.552V103.141H229.018V81.3851Z" fill="#38E5FF"/>
<path opacity="0.35" d="M242.867 82.6744H239.4V107.427H242.867V82.6744Z" fill="#38E5FF"/>
<path opacity="0.19" d="M256.715 55.1348H253.249V88.8851H256.715V55.1348Z" fill="#38E5FF"/>
<path opacity="0.75" d="M270.573 180.067H267.106V202.567H270.573V180.067Z" fill="#38E5FF"/>
<path opacity="0.4" d="M284.421 96.7756H280.955V117.778H284.421V96.7756Z" fill="#38E5FF"/>
<path opacity="0.53" d="M312.118 174.074H308.652V198.826H312.118V174.074Z" fill="#38E5FF"/>
<path opacity="0.58" d="M339.815 85.5165H336.348V114.019H339.815V85.5165Z" fill="#38E5FF"/>
<path opacity="0.68" d="M367.512 180.303H364.045V196.801H367.512V180.303Z" fill="#38E5FF"/>
<path opacity="0.1" d="M381.36 169.997H377.894V201.504H381.36V169.997Z" fill="#38E5FF"/>
<path opacity="0.67" d="M395.218 75.483H391.751V93.4887H395.218V75.483Z" fill="#38E5FF"/>
<path opacity="0.15" d="M409.066 169.897H405.6V198.399H409.066V169.897Z" fill="#38E5FF"/>
<path opacity="0.28" d="M422.915 163.305H419.448V176.807H422.915V163.305Z" fill="#38E5FF"/>
<path opacity="0.19" d="M436.763 65.9399H433.297V77.1901H436.763V65.9399Z" fill="#38E5FF"/>
<path opacity="0.8" d="M450.612 106.718H447.145V118.722H450.612V106.718Z" fill="#38E5FF"/>
<path opacity="0.67" d="M464.46 186.504H460.994V204.51H464.46V186.504Z" fill="#38E5FF"/>
<path opacity="0.38" d="M478.309 180.057H474.842V189.056H478.309V180.057Z" fill="#38E5FF"/>
<path opacity="0.77" d="M492.157 178.904H488.69V190.154H492.157V178.904Z" fill="#38E5FF"/>
<path opacity="0.71" d="M506.006 161.462H502.539V194.467H506.006V161.462Z" fill="#38E5FF"/>
<path opacity="0.18" d="M519.854 54.9441H516.387V76.6998H519.854V54.9441Z" fill="#38E5FF"/>
<path opacity="0.15" d="M533.711 137.154H530.245V169.407H533.711V137.154Z" fill="#38E5FF"/>
<path opacity="0.4" d="M547.56 54.5265H544.093V68.0284H547.56V54.5265Z" fill="#38E5FF"/>
<path opacity="0.47" d="M561.408 83.4553H557.942V110.459H561.408V83.4553Z" fill="#38E5FF"/>
<path opacity="0.66" d="M575.257 167.69H571.79V197.691H575.257V167.69Z" fill="#38E5FF"/>
<path opacity="0.65" d="M602.954 88.7762H599.487V121.782H602.954V88.7762Z" fill="#38E5FF"/>
<path opacity="0.68" d="M616.802 182.836H613.336V203.838H616.802V182.836Z" fill="#38E5FF"/>
<path opacity="0.47" d="M630.651 65.4679H627.184V89.4663H630.651V65.4679Z" fill="#38E5FF"/>
<path opacity="0.49" d="M644.499 69.5992H641.032V101.851H644.499V69.5992Z" fill="#38E5FF"/>
<rect width="645" height="292" fill="url(#paint0_linear_1_204)"/>
</g>
<rect x="0.5" y="0.5" width="644" height="291" rx="23.5" stroke="#CAECF1" stroke-opacity="0.1"/>
<defs>
<linearGradient id="paint0_linear_1_204" x1="322.5" y1="0" x2="322.5" y2="292" gradientUnits="userSpaceOnUse">
<stop stop-color="#04050A" stop-opacity="0"/>
<stop offset="0.809896" stop-color="#04050A"/>
</linearGradient>
<clipPath id="clip0_1_204">
<rect width="645" height="292" rx="24" fill="white"/>
</clipPath>
</defs>
</svg>
