<svg width="128" height="127" viewBox="0 0 128 127" fill="none" xmlns="http://www.w3.org/2000/svg">
<path d="M64 126C98.493 126 126.455 98.0178 126.455 63.5C126.455 28.9822 98.493 1 64 1C29.507 1 1.54492 28.9822 1.54492 63.5C1.54492 98.0178 29.507 126 64 126Z" fill="#1F2229" stroke="#2E333D" stroke-width="2" stroke-miterlimit="10"/>
<path d="M122.263 27.2044V100.303C122.263 102.983 120.058 105.189 117.38 105.189H13.2062C10.5285 105.189 8.32324 102.983 8.32324 100.303V27.2044C8.32324 24.5247 10.5285 22.3179 13.2062 22.3179H117.38C120.058 22.3179 122.263 24.5247 122.263 27.2044Z" fill="#2E333D" stroke="#3E4450" stroke-width="2" stroke-miterlimit="10"/>
<path d="M122.263 27.2044V30.751H8.32324V27.2044C8.32324 24.5247 10.5285 22.3179 13.2062 22.3179H117.38C120.058 22.3179 122.263 24.5247 122.263 27.2044Z" fill="#1F2229" stroke="#3E4450" stroke-width="2" stroke-miterlimit="10"/>
<path d="M13.4427 28.0711C14.2691 28.0711 14.9391 27.4007 14.9391 26.5737C14.9391 25.7466 14.2691 25.0762 13.4427 25.0762C12.6163 25.0762 11.9463 25.7466 11.9463 26.5737C11.9463 27.4007 12.6163 28.0711 13.4427 28.0711Z" fill="#949BAB"/>
<path opacity="0.6" d="M18.0892 28.0711C18.9156 28.0711 19.5856 27.4007 19.5856 26.5737C19.5856 25.7466 18.9156 25.0762 18.0892 25.0762C17.2627 25.0762 16.5928 25.7466 16.5928 26.5737C16.5928 27.4007 17.2627 28.0711 18.0892 28.0711Z" fill="#949BAB"/>
<path opacity="0.4" d="M22.8148 28.0711C23.6412 28.0711 24.3112 27.4007 24.3112 26.5737C24.3112 25.7466 23.6412 25.0762 22.8148 25.0762C21.9883 25.0762 21.3184 25.7466 21.3184 26.5737C21.3184 27.4007 21.9883 28.0711 22.8148 28.0711Z" fill="#949BAB"/>
<path d="M32.6559 43.8679H17.4422C16.7282 43.8679 16.124 43.2633 16.124 42.5488V39.1961C16.124 38.4815 16.7282 37.877 17.4422 37.877H32.6559C33.3699 37.877 33.974 38.4815 33.974 39.1961V42.5488C33.974 43.2633 33.3699 43.8679 32.6559 43.8679Z" fill="#6D7381"/>
<path d="M84.9977 43.8679H69.784C69.07 43.8679 68.4658 43.2633 68.4658 42.5488V39.1961C68.4658 38.4815 69.07 37.877 69.784 37.877H84.9977C85.7117 37.877 86.3158 38.4815 86.3158 39.1961V42.5488C86.3708 43.2633 85.7666 43.8679 84.9977 43.8679Z" fill="#6D7381"/>
<path d="M62.919 43.8677H39.7414C38.8627 43.8677 38.0938 43.1532 38.0938 42.2188V39.4707C38.0938 38.5913 38.8078 37.8218 39.7414 37.8218H62.919C63.7978 37.8218 64.5667 38.5363 64.5667 39.4707V42.2188C64.5667 43.1532 63.8527 43.8677 62.919 43.8677Z" fill="#6D7381"/>
<path d="M111.251 43.8677H91.9182C91.0394 43.8677 90.2705 43.1532 90.2705 42.2188V39.4707C90.2705 38.5913 90.9845 37.8218 91.9182 37.8218H111.251C112.13 37.8218 112.899 38.5363 112.899 39.4707V42.2188C112.899 43.1532 112.185 43.8677 111.251 43.8677Z" fill="#6D7381"/>
<path d="M31.9971 53.7058H18.0466C16.9481 53.7058 16.0693 52.8264 16.0693 51.7272C16.0693 50.6279 16.9481 49.7485 18.0466 49.7485H31.9971C33.0955 49.7485 33.9743 50.6279 33.9743 51.7272C33.9743 52.8264 33.0955 53.7058 31.9971 53.7058Z" fill="#6D7381"/>
<path d="M84.3935 53.7058H70.4431C69.3446 53.7058 68.4658 52.8264 68.4658 51.7272C68.4658 50.6279 69.3446 49.7485 70.4431 49.7485H84.3935C85.492 49.7485 86.3708 50.6279 86.3708 51.7272C86.3708 52.8264 85.492 53.7058 84.3935 53.7058Z" fill="#6D7381"/>
<path d="M62.5895 53.7058H40.071C38.9725 53.7058 38.0938 52.8264 38.0938 51.7272C38.0938 50.6279 38.9725 49.7485 40.071 49.7485H62.6444C63.7429 49.7485 64.6216 50.6279 64.6216 51.7272C64.5667 52.8264 63.6879 53.7058 62.5895 53.7058Z" fill="#6D7381"/>
<path d="M18.376 52.9364C19.013 52.9364 19.5294 52.4196 19.5294 51.7821C19.5294 51.1447 19.013 50.6279 18.376 50.6279C17.739 50.6279 17.2227 51.1447 17.2227 51.7821C17.2227 52.4196 17.739 52.9364 18.376 52.9364Z" fill="#949BAB"/>
<path d="M31.9971 62.4451H18.0466C16.9481 62.4451 16.0693 61.5657 16.0693 60.4664C16.0693 59.3672 16.9481 58.4878 18.0466 58.4878H31.9971C33.0955 58.4878 33.9743 59.3672 33.9743 60.4664C33.9743 61.5657 33.0955 62.4451 31.9971 62.4451Z" fill="#6D7381"/>
<path d="M84.3935 62.4451H70.4431C69.3446 62.4451 68.4658 61.5657 68.4658 60.4664C68.4658 59.3672 69.3446 58.4878 70.4431 58.4878H84.3935C85.492 58.4878 86.3708 59.3672 86.3708 60.4664C86.3708 61.5657 85.492 62.4451 84.3935 62.4451Z" fill="#6D7381"/>
<path d="M62.5895 62.4451H40.071C38.9725 62.4451 38.0938 61.5657 38.0938 60.4664C38.0938 59.3672 38.9725 58.4878 40.071 58.4878H62.6444C63.7429 58.4878 64.6216 59.3672 64.6216 60.4664C64.5667 61.5657 63.6879 62.4451 62.5895 62.4451Z" fill="#6D7381"/>
<path d="M18.376 61.6204C19.013 61.6204 19.5294 61.1037 19.5294 60.4662C19.5294 59.8288 19.013 59.312 18.376 59.312C17.739 59.312 17.2227 59.8288 17.2227 60.4662C17.2227 61.1037 17.739 61.6204 18.376 61.6204Z" fill="#949BAB"/>
<path d="M31.9971 71.1844H18.0466C16.9481 71.1844 16.0693 70.305 16.0693 69.2057C16.0693 68.1065 16.9481 67.2271 18.0466 67.2271H31.9971C33.0955 67.2271 33.9743 68.1065 33.9743 69.2057C33.9743 70.305 33.0955 71.1844 31.9971 71.1844Z" fill="#6D7381"/>
<path d="M84.3935 71.1844H70.4431C69.3446 71.1844 68.4658 70.305 68.4658 69.2057C68.4658 68.1065 69.3446 67.2271 70.4431 67.2271H84.3935C85.492 67.2271 86.3708 68.1065 86.3708 69.2057C86.3708 70.305 85.492 71.1844 84.3935 71.1844Z" fill="#6D7381"/>
<path d="M62.5895 71.1844H40.071C38.9725 71.1844 38.0938 70.305 38.0938 69.2057C38.0938 68.1065 38.9725 67.2271 40.071 67.2271H62.6444C63.7429 67.2271 64.6216 68.1065 64.6216 69.2057C64.5667 70.305 63.6879 71.1844 62.5895 71.1844Z" fill="#6D7381"/>
<path d="M18.376 70.3597C19.013 70.3597 19.5294 69.8429 19.5294 69.2055C19.5294 68.568 19.013 68.0513 18.376 68.0513C17.739 68.0513 17.2227 68.568 17.2227 69.2055C17.2227 69.8429 17.739 70.3597 18.376 70.3597Z" fill="#949BAB"/>
<path d="M31.9971 79.8684H18.0466C16.9481 79.8684 16.0693 78.989 16.0693 77.8898C16.0693 76.7905 16.9481 75.9111 18.0466 75.9111H31.9971C33.0955 75.9111 33.9743 76.7905 33.9743 77.8898C33.9743 78.989 33.0955 79.8684 31.9971 79.8684Z" fill="#6D7381"/>
<path d="M84.3935 79.8684H70.4431C69.3446 79.8684 68.4658 78.989 68.4658 77.8898C68.4658 76.7905 69.3446 75.9111 70.4431 75.9111H84.3935C85.492 75.9111 86.3708 76.7905 86.3708 77.8898C86.3708 78.989 85.492 79.8684 84.3935 79.8684Z" fill="#6D7381"/>
<path d="M62.5895 79.8684H40.071C38.9725 79.8684 38.0938 78.989 38.0938 77.8898C38.0938 76.7905 38.9725 75.9111 40.071 75.9111H62.6444C63.7429 75.9111 64.6216 76.7905 64.6216 77.8898C64.5667 78.989 63.6879 79.8684 62.5895 79.8684Z" fill="#6D7381"/>
<path d="M18.376 79.099C19.013 79.099 19.5294 78.5822 19.5294 77.9447C19.5294 77.3073 19.013 76.7905 18.376 76.7905C17.739 76.7905 17.2227 77.3073 17.2227 77.9447C17.2227 78.5822 17.739 79.099 18.376 79.099Z" fill="#949BAB"/>
<path d="M31.9971 88.6072H18.0466C16.9481 88.6072 16.0693 87.7278 16.0693 86.6286C16.0693 85.5293 16.9481 84.6499 18.0466 84.6499H31.9971C33.0955 84.6499 33.9743 85.5293 33.9743 86.6286C33.9743 87.7278 33.0955 88.6072 31.9971 88.6072Z" fill="#6D7381"/>
<path d="M84.3935 88.6072H70.4431C69.3446 88.6072 68.4658 87.7278 68.4658 86.6286C68.4658 85.5293 69.3446 84.6499 70.4431 84.6499H84.3935C85.492 84.6499 86.3708 85.5293 86.3708 86.6286C86.3708 87.7278 85.492 88.6072 84.3935 88.6072Z" fill="#6D7381"/>
<path d="M62.5895 88.6072H40.071C38.9725 88.6072 38.0938 87.7278 38.0938 86.6286C38.0938 85.5293 38.9725 84.6499 40.071 84.6499H62.6444C63.7429 84.6499 64.6216 85.5293 64.6216 86.6286C64.5667 87.7278 63.6879 88.6072 62.5895 88.6072Z" fill="#6D7381"/>
<path d="M18.376 87.783C19.013 87.783 19.5294 87.2663 19.5294 86.6288C19.5294 85.9914 19.013 85.4746 18.376 85.4746C17.739 85.4746 17.2227 85.9914 17.2227 86.6288C17.2227 87.2663 17.739 87.783 18.376 87.783Z" fill="#949BAB"/>
<path d="M31.9971 97.3465H18.0466C16.9481 97.3465 16.0693 96.4671 16.0693 95.3678C16.0693 94.2686 16.9481 93.3892 18.0466 93.3892H31.9971C33.0955 93.3892 33.9743 94.2686 33.9743 95.3678C33.9743 96.4671 33.0955 97.3465 31.9971 97.3465Z" fill="#6D7381"/>
<path d="M84.3935 97.3465H70.4431C69.3446 97.3465 68.4658 96.4671 68.4658 95.3678C68.4658 94.2686 69.3446 93.3892 70.4431 93.3892H84.3935C85.492 93.3892 86.3708 94.2686 86.3708 95.3678C86.3708 96.4671 85.492 97.3465 84.3935 97.3465Z" fill="#6D7381"/>
<path d="M62.5895 97.3465H40.071C38.9725 97.3465 38.0938 96.4671 38.0938 95.3678C38.0938 94.2686 38.9725 93.3892 40.071 93.3892H62.6444C63.7429 93.3892 64.6216 94.2686 64.6216 95.3678C64.5667 96.4671 63.6879 97.3465 62.5895 97.3465Z" fill="#6D7381"/>
<path d="M18.376 96.5218C19.013 96.5218 19.5294 96.0051 19.5294 95.3676C19.5294 94.7301 19.013 94.2134 18.376 94.2134C17.739 94.2134 17.2227 94.7301 17.2227 95.3676C17.2227 96.0051 17.739 96.5218 18.376 96.5218Z" fill="#949BAB"/>
<path d="M110.922 53.7058H92.1931C91.0946 53.7058 90.2158 52.8264 90.2158 51.7272C90.2158 50.6279 91.0946 49.7485 92.1931 49.7485H110.922C112.02 49.7485 112.899 50.6279 112.899 51.7272C112.899 52.8264 112.02 53.7058 110.922 53.7058Z" fill="#6D7381"/>
<path d="M110.922 62.4451H92.1931C91.0946 62.4451 90.2158 61.5657 90.2158 60.4664C90.2158 59.3672 91.0946 58.4878 92.1931 58.4878H110.922C112.02 58.4878 112.899 59.3672 112.899 60.4664C112.899 61.5657 112.02 62.4451 110.922 62.4451Z" fill="#6D7381"/>
<path d="M110.922 71.1844H92.1931C91.0946 71.1844 90.2158 70.305 90.2158 69.2057C90.2158 68.1065 91.0946 67.2271 92.1931 67.2271H110.922C112.02 67.2271 112.899 68.1065 112.899 69.2057C112.899 70.305 112.02 71.1844 110.922 71.1844Z" fill="#6D7381"/>
<path d="M110.922 79.8684H92.1931C91.0946 79.8684 90.2158 78.989 90.2158 77.8898C90.2158 76.7905 91.0946 75.9111 92.1931 75.9111H110.922C112.02 75.9111 112.899 76.7905 112.899 77.8898C112.899 78.989 112.02 79.8684 110.922 79.8684Z" fill="#6D7381"/>
<path d="M110.922 88.6072H92.1931C91.0946 88.6072 90.2158 87.7278 90.2158 86.6286C90.2158 85.5293 91.0946 84.6499 92.1931 84.6499H110.922C112.02 84.6499 112.899 85.5293 112.899 86.6286C112.899 87.7278 112.02 88.6072 110.922 88.6072Z" fill="#6D7381"/>
<path d="M110.922 97.3465H92.1931C91.0946 97.3465 90.2158 96.4671 90.2158 95.3678C90.2158 94.2686 91.0946 93.3892 92.1931 93.3892H110.922C112.02 93.3892 112.899 94.2686 112.899 95.3678C112.899 96.4671 112.02 97.3465 110.922 97.3465Z" fill="#6D7381"/>
</svg>
