<svg width="1820" height="864" viewBox="0 0 1820 864" fill="none" xmlns="http://www.w3.org/2000/svg">
<g opacity="0.05">
<path d="M1217.28 0.00214439L1096.88 185.872L1337.65 185.892L1337.68 185.878L1578.48 185.884L1458.08 371.753L1819.3 185.874L1698.9 0L1458.07 0.00747288L1217.28 0.00214439Z" fill="#38E5FF"/>
<path opacity="0.3" d="M1578.47 185.884L1458.08 371.753L1819.3 185.874L1698.89 0L1458.07 0.00747288L1578.47 185.884Z" fill="white"/>
<path opacity="0.3" d="M1458.08 371.753L1819.3 185.874L1698.9 0L1458.08 371.753Z" fill="white"/>
<path opacity="0.3" d="M1096.88 185.872L1698.9 0L1217.28 0.00214439L1096.88 185.872Z" fill="white"/>
</g>
<g opacity="0.05">
<path d="M0 677.875L120.404 863.751L361.2 863.758L602.024 863.749L722.416 677.879L481.619 677.873L240.795 677.881L361.216 491.996L0 677.875Z" fill="#11D1ED"/>
<path opacity="0.3" d="M0 677.875L120.404 863.751L361.2 863.758L240.795 677.881L361.216 491.996L0 677.875Z" fill="white"/>
<path opacity="0.3" d="M0 677.875L120.404 863.751L361.216 491.996L0 677.875Z" fill="white"/>
<path opacity="0.3" d="M722.413 677.88L602.022 863.75L120.401 863.752L722.413 677.88Z" fill="white"/>
</g>
</svg>
